<?xml version="1.0" encoding="UTF-8"?>
<svg width="1076px" height="1125px" viewBox="0 0 1076 1125" version="1.1" xmlns="http://www.w3.org/2000/svg" xmlns:xlink="http://www.w3.org/1999/xlink">
    <!-- Generator: Sketch 52.6 (67491) - http://www.bohemiancoding.com/sketch -->
    <title>Group</title>
    <desc>Created with Sketch.</desc>
    <defs>
        <path d="M479.528,0 C215.114,0 0,215.119 0,479.531 C0,743.943 215.114,959.063 479.528,959.063 C743.942,959.063 959.063,743.943 959.063,479.531 C959.063,215.119 743.942,0 479.528,0 Z" id="path-1"></path>
        <radialGradient cx="50.0000153%" cy="49.9999847%" fx="50.0000153%" fy="49.9999847%" r="56.3753806%" id="radialGradient-3">
            <stop stop-color="#1CAB00" offset="0%"></stop>
            <stop stop-color="#064D54" offset="64.5163475%"></stop>
            <stop stop-color="#000000" offset="100%"></stop>
        </radialGradient>
        <linearGradient x1="50%" y1="0%" x2="50%" y2="100.000544%" id="linearGradient-4">
            <stop stop-color="#67DE69" offset="0%"></stop>
            <stop stop-color="#0047B0" offset="100%"></stop>
        </linearGradient>
        <linearGradient x1="50%" y1="6.18468272e-15%" x2="50%" y2="100.000326%" id="linearGradient-5">
            <stop stop-color="#67DE69" offset="0%"></stop>
            <stop stop-color="#0047B0" offset="100%"></stop>
        </linearGradient>
        <linearGradient x1="50%" y1="0.000108802089%" x2="50%" y2="100.000435%" id="linearGradient-6">
            <stop stop-color="#67DE69" offset="0%"></stop>
            <stop stop-color="#0047B0" offset="100%"></stop>
        </linearGradient>
        <linearGradient x1="50%" y1="0%" x2="50%" y2="100%" id="linearGradient-7">
            <stop stop-color="#67DE69" offset="0%"></stop>
            <stop stop-color="#0047B0" offset="100%"></stop>
        </linearGradient>
        <linearGradient x1="50%" y1="3.09234136e-15%" x2="50%" y2="99.999456%" id="linearGradient-8">
            <stop stop-color="#67DE69" offset="0%"></stop>
            <stop stop-color="#0047B0" offset="100%"></stop>
        </linearGradient>
        <linearGradient x1="50%" y1="-6.18468272e-15%" x2="50%" y2="100%" id="linearGradient-9">
            <stop stop-color="#67DE69" offset="0%"></stop>
            <stop stop-color="#0047B0" offset="100%"></stop>
        </linearGradient>
        <linearGradient x1="50%" y1="6.18468272e-15%" x2="50%" y2="100.000435%" id="linearGradient-10">
            <stop stop-color="#67DE69" offset="0%"></stop>
            <stop stop-color="#0047B0" offset="100%"></stop>
        </linearGradient>
        <linearGradient x1="50%" y1="0%" x2="50%" y2="99.9995887%" id="linearGradient-11">
            <stop stop-color="#67DE69" offset="0%"></stop>
            <stop stop-color="#0047B0" offset="100%"></stop>
        </linearGradient>
        <linearGradient x1="50%" y1="-5.96385588e-15%" x2="50%" y2="99.9996852%" id="linearGradient-12">
            <stop stop-color="#67DE69" offset="0%"></stop>
            <stop stop-color="#0047B0" offset="100%"></stop>
        </linearGradient>
        <linearGradient x1="50%" y1="0.000104917262%" x2="50%" y2="100.000525%" id="linearGradient-13">
            <stop stop-color="#67DE69" offset="0%"></stop>
            <stop stop-color="#0047B0" offset="100%"></stop>
        </linearGradient>
        <linearGradient x1="50%" y1="-5.96385588e-15%" x2="50%" y2="100.00042%" id="linearGradient-14">
            <stop stop-color="#67DE69" offset="0%"></stop>
            <stop stop-color="#0047B0" offset="100%"></stop>
        </linearGradient>
        <linearGradient x1="50%" y1="0.000104959328%" x2="50%" y2="100.000105%" id="linearGradient-15">
            <stop stop-color="#67DE69" offset="0%"></stop>
            <stop stop-color="#0047B0" offset="100%"></stop>
        </linearGradient>
        <linearGradient x1="50%" y1="-5.96385588e-15%" x2="50%" y2="99.9995803%" id="linearGradient-16">
            <stop stop-color="#67DE69" offset="0%"></stop>
            <stop stop-color="#0047B0" offset="100%"></stop>
        </linearGradient>
        <linearGradient x1="50%" y1="0.000104917262%" x2="50%" y2="100.000315%" id="linearGradient-17">
            <stop stop-color="#67DE69" offset="0%"></stop>
            <stop stop-color="#0047B0" offset="100%"></stop>
        </linearGradient>
        <linearGradient x1="50%" y1="9.91605071e-05%" x2="50%" y2="100%" id="linearGradient-18">
            <stop stop-color="#67DE69" offset="0%"></stop>
            <stop stop-color="#0047B0" offset="100%"></stop>
        </linearGradient>
    </defs>
    <g id="Page-1" stroke="none" stroke-width="1" fill="none" fill-rule="evenodd">
        <g id="Group" transform="translate(-151.000000, -184.000000)">
            <g id="Group-3" transform="translate(241.000000, 265.000000)">
                <mask id="mask-2" fill="white">
                    <use xlink:href="#path-1"></use>
                </mask>
                <g id="Clip-2"></g>
                <path d="M479.528,0 C215.114,0 0,215.119 0,479.531 C0,743.943 215.114,959.063 479.528,959.063 C743.942,959.063 959.063,743.943 959.063,479.531 C959.063,215.119 743.942,0 479.528,0 Z" id="Fill-1" fill="url(#radialGradient-3)" mask="url(#mask-2)"></path>
            </g>
            <g id="Circle-Illustration">
                <circle id="Oval" stroke="url(#linearGradient-4)" cx="715.952" cy="718.335" r="459.55"></circle>
                <circle id="Oval" stroke="url(#linearGradient-5)" stroke-width="2" transform="translate(695.011000, 741.507000) rotate(135.000000) translate(-695.011000, -741.507000) " cx="695.011" cy="741.507" r="459.55"></circle>
                <circle id="Oval" stroke="url(#linearGradient-6)" stroke-width="5" opacity="0.7" transform="translate(675.976000, 744.226000) rotate(120.000000) translate(-675.976000, -744.226000) " cx="675.976" cy="744.226" r="459.55"></circle>
                <circle id="Oval" stroke="url(#linearGradient-7)" stroke-width="5" opacity="0.3" transform="translate(699.769000, 765.980000) rotate(105.000000) translate(-699.769000, -765.980000) " cx="699.769" cy="765.98" r="459.55"></circle>
                <circle id="Oval" stroke="url(#linearGradient-8)" stroke-width="2" opacity="0.2" transform="translate(699.770000, 713.635000) rotate(90.000000) translate(-699.770000, -713.635000) " cx="699.77" cy="713.635" r="459.55"></circle>
                <circle id="Oval" stroke="url(#linearGradient-4)" stroke-width="5" transform="translate(723.564000, 713.635000) rotate(75.000000) translate(-723.564000, -713.635000) " cx="723.564" cy="713.635" r="459.55"></circle>
                <circle id="Oval" stroke="url(#linearGradient-9)" stroke-width="5" opacity="0.3" transform="translate(707.248000, 729.950000) rotate(60.000000) translate(-707.248000, -729.950000) " cx="707.248" cy="729.95" r="459.55"></circle>
                <circle id="Oval" stroke="url(#linearGradient-7)" stroke-width="5" opacity="0.2" transform="translate(707.247000, 729.270000) rotate(45.000000) translate(-707.247000, -729.270000) " cx="707.247" cy="729.27" r="459.55"></circle>
                <circle id="Oval" stroke="url(#linearGradient-8)" stroke-width="2" opacity="0.7" transform="translate(695.691000, 749.665000) rotate(30.000000) translate(-695.691000, -749.665000) " cx="695.691" cy="749.665" r="459.55"></circle>
                <circle id="Oval" stroke="url(#linearGradient-10)" stroke-width="5" opacity="0.3" transform="translate(720.164000, 746.266000) rotate(15.000000) translate(-720.164000, -746.266000) " cx="720.164" cy="746.266" r="459.55"></circle>
                <circle id="Oval" stroke="url(#linearGradient-11)" stroke-width="5" cx="738.179" cy="746.265" r="486.229"></circle>
                <circle id="Oval" stroke="url(#linearGradient-8)" transform="translate(679.036000, 746.266000) rotate(-15.000000) translate(-679.036000, -746.266000) " cx="679.036" cy="746.266" r="486.229"></circle>
                <circle id="Oval" stroke="#67DE69" stroke-width="2" transform="translate(679.036000, 820.026000) rotate(-15.000000) translate(-679.036000, -820.026000) " cx="679.036" cy="820.026" r="486.95"></circle>
                <circle id="Oval" stroke="url(#linearGradient-12)" stroke-width="5" opacity="0.2" transform="translate(703.245000, 764.397000) rotate(-60.000000) translate(-703.245000, -764.397000) " cx="703.245" cy="764.397" r="476.566"></circle>
                <circle id="Oval" stroke="url(#linearGradient-7)" stroke-width="5" opacity="0.7" transform="translate(721.584000, 756.564000) rotate(-75.000000) translate(-721.584000, -756.564000) " cx="721.584" cy="756.564" r="476.566"></circle>
                <circle id="Oval" stroke="url(#linearGradient-13)" stroke-width="5" transform="translate(691.911000, 741.159000) rotate(-90.000000) translate(-691.911000, -741.159000) " cx="691.911" cy="741.159" r="476.566"></circle>
                <circle id="Oval" stroke="url(#linearGradient-9)" stroke-width="2" opacity="0.2" transform="translate(705.960000, 793.594000) rotate(-105.000000) translate(-705.960000, -793.594000) " cx="705.96" cy="793.594" r="476.566"></circle>
                <circle id="Oval" stroke="url(#linearGradient-14)" transform="translate(682.127000, 799.980000) rotate(-120.000000) translate(-682.127000, -799.980000) " cx="682.127" cy="799.98" r="476.566"></circle>
                <ellipse id="Oval" stroke="url(#linearGradient-15)" stroke-width="5" opacity="0.3" transform="translate(694.168000, 779.394000) rotate(-135.000000) translate(-694.168000, -779.394000) " cx="694.168" cy="779.394" rx="476.615" ry="476.375"></ellipse>
                <circle id="Oval" stroke="url(#linearGradient-11)" stroke-width="5" opacity="0.2" transform="translate(694.272000, 779.938000) rotate(-150.000000) translate(-694.272000, -779.938000) " cx="694.272" cy="779.938" r="476.566"></circle>
                <circle id="Oval" stroke="url(#linearGradient-16)" stroke-width="2" transform="translate(700.376000, 756.408000) rotate(-165.000000) translate(-700.376000, -756.408000) " cx="700.376" cy="756.408" r="476.566"></circle>
                <circle id="Oval" stroke="url(#linearGradient-17)" opacity="0.3" transform="translate(676.774000, 766.381000) rotate(180.000000) translate(-676.774000, -766.381000) " cx="676.774" cy="766.381" r="476.566"></circle>
                <circle id="Oval" stroke="url(#linearGradient-18)" stroke-width="5" opacity="0.2" transform="translate(658.727000, 771.217000) rotate(165.000000) translate(-658.727000, -771.217000) " cx="658.727" cy="771.217" r="504.233"></circle>
                <circle id="Oval" stroke="url(#linearGradient-8)" transform="translate(717.971000, 755.342000) rotate(150.000000) translate(-717.971000, -755.342000) " cx="717.971" cy="755.342" r="504.233"></circle>
                <circle id="Oval" stroke="#0085FF" transform="translate(689.816000, 689.816000) rotate(150.000000) translate(-689.816000, -689.816000) " cx="689.816" cy="689.816" r="504.98"></circle>
            </g>
            <path d="M915.030667,578.049522 C935.69762,595.344904 950.031143,616.631544 958.031251,641.909412 C966.03136,667.187279 967.198048,692.631454 961.531299,718.241936 C955.86455,743.852417 943.697728,765.970546 925.030803,784.596352 C786.806707,924.28986 714.805729,994.136614 709.02787,994.136614 C703.25001,994.136614 631.249032,924.622464 493.024936,785.594163 C474.358011,766.30316 462.191189,743.852417 456.52444,718.241936 C450.857692,692.631454 452.024379,667.187279 460.024488,641.909412 C468.024596,616.631544 482.358119,595.344904 503.025072,578.049522 C521.025316,562.749762 541.358921,553.104253 564.0259,549.11301 C586.69288,545.121767 609.026511,546.78479 631.02681,554.102064 C653.027109,561.419338 668.094064,573.725681 684.760962,591.021062 L709.02787,614.17769 L734.361436,591.021062 C751.028334,573.725681 765.02863,561.419338 787.028929,554.102064 C809.029228,546.78479 831.362859,545.121767 854.029839,549.11301 C876.696818,553.104253 897.030423,562.749762 915.030667,578.049522 Z" id="heart" fill="#FFFFFF"></path>
        </g>
    </g>
</svg>